<mxfile host="b50ff727-5b7c-4c80-912b-1af8083c6317" modified="2020-08-24T04:20:03.974Z" agent="5.0 (Windows NT 10.0; Win64; x64) AppleWebKit/537.36 (KHTML, like Gecko) Code/1.48.1 Chrome/78.0.3904.130 Electron/7.3.2 Safari/537.36" etag="RJ97dHx9lM8bn9f7CuHU" version="13.1.3">
    <diagram id="6hGFLwfOUW9BJ-s0fimq" name="Page-1">
        <mxGraphModel dx="2831" dy="1584" grid="1" gridSize="10" guides="1" tooltips="1" connect="1" arrows="1" fold="1" page="1" pageScale="1" pageWidth="583" pageHeight="413" math="0" shadow="0">
            <root>
                <mxCell id="0"/>
                <mxCell id="1" parent="0"/>
                <mxCell id="3" value="" style="rounded=0;whiteSpace=wrap;html=1;shadow=0;fillColor=#545454;" vertex="1" parent="1">
                    <mxGeometry x="-546" y="60" width="1676" height="690" as="geometry"/>
                </mxCell>
                <mxCell id="4" value="" style="rounded=1;whiteSpace=wrap;html=1;shadow=0;fillColor=#FF8000;direction=south;" vertex="1" parent="1">
                    <mxGeometry x="470" y="280.00000000000017" width="44" height="88" as="geometry"/>
                </mxCell>
                <mxCell id="5" value="" style="rounded=1;whiteSpace=wrap;html=1;shadow=0;fillColor=#FF8000;direction=south;" vertex="1" parent="1">
                    <mxGeometry x="610" y="280" width="44" height="88" as="geometry"/>
                </mxCell>
                <mxCell id="6" value="" style="rounded=1;whiteSpace=wrap;html=1;shadow=0;fillColor=#FF8000;direction=south;" vertex="1" parent="1">
                    <mxGeometry x="680" y="280.00000000000017" width="44" height="88" as="geometry"/>
                </mxCell>
                <mxCell id="7" value="" style="rounded=1;whiteSpace=wrap;html=1;shadow=0;fillColor=#FF8000;direction=south;" vertex="1" parent="1">
                    <mxGeometry x="540" y="280" width="44" height="88" as="geometry"/>
                </mxCell>
                <mxCell id="8" value="" style="rounded=1;whiteSpace=wrap;html=1;shadow=0;fillColor=#FF8000;direction=south;" vertex="1" parent="1">
                    <mxGeometry x="750" y="280.00000000000017" width="44" height="88" as="geometry"/>
                </mxCell>
                <mxCell id="9" value="" style="rounded=1;whiteSpace=wrap;html=1;shadow=0;fillColor=#FF8000;direction=south;" vertex="1" parent="1">
                    <mxGeometry x="890" y="280" width="44" height="88" as="geometry"/>
                </mxCell>
                <mxCell id="10" value="" style="rounded=1;whiteSpace=wrap;html=1;shadow=0;fillColor=#FF8000;direction=south;" vertex="1" parent="1">
                    <mxGeometry x="960" y="280.00000000000017" width="44" height="88" as="geometry"/>
                </mxCell>
                <mxCell id="11" value="" style="rounded=1;whiteSpace=wrap;html=1;shadow=0;fillColor=#FF8000;direction=south;" vertex="1" parent="1">
                    <mxGeometry x="820" y="280" width="44" height="88" as="geometry"/>
                </mxCell>
                <mxCell id="12" value="" style="rounded=1;whiteSpace=wrap;html=1;shadow=0;fillColor=#FF8000;direction=south;" vertex="1" parent="1">
                    <mxGeometry x="-90" y="280.00000000000017" width="44" height="88" as="geometry"/>
                </mxCell>
                <mxCell id="13" value="" style="rounded=1;whiteSpace=wrap;html=1;shadow=0;fillColor=#FF8000;direction=south;" vertex="1" parent="1">
                    <mxGeometry x="50" y="280" width="44" height="88" as="geometry"/>
                </mxCell>
                <mxCell id="14" value="" style="rounded=1;whiteSpace=wrap;html=1;shadow=0;fillColor=#FF8000;direction=south;" vertex="1" parent="1">
                    <mxGeometry x="120" y="280.00000000000017" width="44" height="88" as="geometry"/>
                </mxCell>
                <mxCell id="15" value="" style="rounded=1;whiteSpace=wrap;html=1;shadow=0;fillColor=#FF8000;direction=south;" vertex="1" parent="1">
                    <mxGeometry x="-20" y="280" width="44" height="88" as="geometry"/>
                </mxCell>
                <mxCell id="16" value="" style="rounded=1;whiteSpace=wrap;html=1;shadow=0;fillColor=#FF8000;direction=south;" vertex="1" parent="1">
                    <mxGeometry x="190" y="280.00000000000017" width="44" height="88" as="geometry"/>
                </mxCell>
                <mxCell id="17" value="" style="rounded=1;whiteSpace=wrap;html=1;shadow=0;fillColor=#FF8000;direction=south;" vertex="1" parent="1">
                    <mxGeometry x="330" y="280" width="44" height="88" as="geometry"/>
                </mxCell>
                <mxCell id="18" value="" style="rounded=1;whiteSpace=wrap;html=1;shadow=0;fillColor=#FF8000;direction=south;" vertex="1" parent="1">
                    <mxGeometry x="400" y="280.00000000000017" width="44" height="88" as="geometry"/>
                </mxCell>
                <mxCell id="19" value="" style="rounded=1;whiteSpace=wrap;html=1;shadow=0;fillColor=#FF8000;direction=south;" vertex="1" parent="1">
                    <mxGeometry x="260" y="280" width="44" height="88" as="geometry"/>
                </mxCell>
                <mxCell id="20" value="" style="rounded=1;whiteSpace=wrap;html=1;shadow=0;fillColor=#FF8000;direction=south;" vertex="1" parent="1">
                    <mxGeometry x="470" y="390.00000000000017" width="44" height="88" as="geometry"/>
                </mxCell>
                <mxCell id="21" value="" style="rounded=1;whiteSpace=wrap;html=1;shadow=0;fillColor=#FF8000;direction=south;" vertex="1" parent="1">
                    <mxGeometry x="610" y="390" width="44" height="88" as="geometry"/>
                </mxCell>
                <mxCell id="22" value="" style="rounded=1;whiteSpace=wrap;html=1;shadow=0;fillColor=#FF8000;direction=south;" vertex="1" parent="1">
                    <mxGeometry x="680" y="390.00000000000017" width="44" height="88" as="geometry"/>
                </mxCell>
                <mxCell id="23" value="" style="rounded=1;whiteSpace=wrap;html=1;shadow=0;fillColor=#FF8000;direction=south;" vertex="1" parent="1">
                    <mxGeometry x="540" y="390" width="44" height="88" as="geometry"/>
                </mxCell>
                <mxCell id="24" value="" style="rounded=1;whiteSpace=wrap;html=1;shadow=0;fillColor=#FF8000;direction=south;" vertex="1" parent="1">
                    <mxGeometry x="750" y="390.00000000000017" width="44" height="88" as="geometry"/>
                </mxCell>
                <mxCell id="25" value="" style="rounded=1;whiteSpace=wrap;html=1;shadow=0;fillColor=#FF8000;direction=south;" vertex="1" parent="1">
                    <mxGeometry x="890" y="390" width="44" height="88" as="geometry"/>
                </mxCell>
                <mxCell id="26" value="" style="rounded=1;whiteSpace=wrap;html=1;shadow=0;fillColor=#FF8000;direction=south;" vertex="1" parent="1">
                    <mxGeometry x="960" y="390.00000000000017" width="44" height="88" as="geometry"/>
                </mxCell>
                <mxCell id="27" value="" style="rounded=1;whiteSpace=wrap;html=1;shadow=0;fillColor=#FF8000;direction=south;" vertex="1" parent="1">
                    <mxGeometry x="820" y="390" width="44" height="88" as="geometry"/>
                </mxCell>
                <mxCell id="28" value="" style="rounded=1;whiteSpace=wrap;html=1;shadow=0;fillColor=#FF8000;direction=south;" vertex="1" parent="1">
                    <mxGeometry x="-90" y="390.00000000000017" width="44" height="88" as="geometry"/>
                </mxCell>
                <mxCell id="29" value="" style="rounded=1;whiteSpace=wrap;html=1;shadow=0;fillColor=#FF8000;direction=south;" vertex="1" parent="1">
                    <mxGeometry x="50" y="390" width="44" height="88" as="geometry"/>
                </mxCell>
                <mxCell id="30" value="" style="rounded=1;whiteSpace=wrap;html=1;shadow=0;fillColor=#FF8000;direction=south;" vertex="1" parent="1">
                    <mxGeometry x="120" y="390.00000000000017" width="44" height="88" as="geometry"/>
                </mxCell>
                <mxCell id="31" value="" style="rounded=1;whiteSpace=wrap;html=1;shadow=0;fillColor=#FF8000;direction=south;" vertex="1" parent="1">
                    <mxGeometry x="-20" y="390" width="44" height="88" as="geometry"/>
                </mxCell>
                <mxCell id="32" value="" style="rounded=1;whiteSpace=wrap;html=1;shadow=0;fillColor=#FF8000;direction=south;" vertex="1" parent="1">
                    <mxGeometry x="190" y="390.00000000000017" width="44" height="88" as="geometry"/>
                </mxCell>
                <mxCell id="33" value="" style="rounded=1;whiteSpace=wrap;html=1;shadow=0;fillColor=#FF8000;direction=south;" vertex="1" parent="1">
                    <mxGeometry x="330" y="390" width="44" height="88" as="geometry"/>
                </mxCell>
                <mxCell id="34" value="" style="rounded=1;whiteSpace=wrap;html=1;shadow=0;fillColor=#FF8000;direction=south;" vertex="1" parent="1">
                    <mxGeometry x="400" y="390.00000000000017" width="44" height="88" as="geometry"/>
                </mxCell>
                <mxCell id="35" value="" style="rounded=1;whiteSpace=wrap;html=1;shadow=0;fillColor=#FF8000;direction=south;" vertex="1" parent="1">
                    <mxGeometry x="260" y="390" width="44" height="88" as="geometry"/>
                </mxCell>
                <mxCell id="36" value="" style="rounded=1;whiteSpace=wrap;html=1;shadow=0;fillColor=#FF8000;direction=south;" vertex="1" parent="1">
                    <mxGeometry x="470" y="500.00000000000017" width="44" height="88" as="geometry"/>
                </mxCell>
                <mxCell id="37" value="" style="rounded=1;whiteSpace=wrap;html=1;shadow=0;fillColor=#FF8000;direction=south;" vertex="1" parent="1">
                    <mxGeometry x="610" y="500" width="44" height="88" as="geometry"/>
                </mxCell>
                <mxCell id="38" value="" style="rounded=1;whiteSpace=wrap;html=1;shadow=0;fillColor=#FF8000;direction=south;" vertex="1" parent="1">
                    <mxGeometry x="680" y="500.00000000000017" width="44" height="88" as="geometry"/>
                </mxCell>
                <mxCell id="39" value="" style="rounded=1;whiteSpace=wrap;html=1;shadow=0;fillColor=#FF8000;direction=south;" vertex="1" parent="1">
                    <mxGeometry x="540" y="500" width="44" height="88" as="geometry"/>
                </mxCell>
                <mxCell id="40" value="" style="rounded=1;whiteSpace=wrap;html=1;shadow=0;fillColor=#FF8000;direction=south;" vertex="1" parent="1">
                    <mxGeometry x="750" y="500.00000000000017" width="44" height="88" as="geometry"/>
                </mxCell>
                <mxCell id="41" value="" style="rounded=1;whiteSpace=wrap;html=1;shadow=0;fillColor=#FF8000;direction=south;" vertex="1" parent="1">
                    <mxGeometry x="890" y="500" width="44" height="88" as="geometry"/>
                </mxCell>
                <mxCell id="42" value="" style="rounded=1;whiteSpace=wrap;html=1;shadow=0;fillColor=#FF8000;direction=south;" vertex="1" parent="1">
                    <mxGeometry x="960" y="500.00000000000017" width="44" height="88" as="geometry"/>
                </mxCell>
                <mxCell id="43" value="" style="rounded=1;whiteSpace=wrap;html=1;shadow=0;fillColor=#FF8000;direction=south;" vertex="1" parent="1">
                    <mxGeometry x="820" y="500" width="44" height="88" as="geometry"/>
                </mxCell>
                <mxCell id="44" value="" style="rounded=1;whiteSpace=wrap;html=1;shadow=0;fillColor=#FF8000;direction=south;" vertex="1" parent="1">
                    <mxGeometry x="-90" y="500.00000000000017" width="44" height="88" as="geometry"/>
                </mxCell>
                <mxCell id="45" value="" style="rounded=1;whiteSpace=wrap;html=1;shadow=0;fillColor=#FF8000;direction=south;" vertex="1" parent="1">
                    <mxGeometry x="50" y="500" width="44" height="88" as="geometry"/>
                </mxCell>
                <mxCell id="46" value="" style="rounded=1;whiteSpace=wrap;html=1;shadow=0;fillColor=#FF8000;direction=south;" vertex="1" parent="1">
                    <mxGeometry x="120" y="500.00000000000017" width="44" height="88" as="geometry"/>
                </mxCell>
                <mxCell id="47" value="" style="rounded=1;whiteSpace=wrap;html=1;shadow=0;fillColor=#FF8000;direction=south;" vertex="1" parent="1">
                    <mxGeometry x="-20" y="500" width="44" height="88" as="geometry"/>
                </mxCell>
                <mxCell id="48" value="" style="rounded=1;whiteSpace=wrap;html=1;shadow=0;fillColor=#FF8000;direction=south;" vertex="1" parent="1">
                    <mxGeometry x="190" y="500.00000000000017" width="44" height="88" as="geometry"/>
                </mxCell>
                <mxCell id="49" value="" style="rounded=1;whiteSpace=wrap;html=1;shadow=0;fillColor=#FF8000;direction=south;" vertex="1" parent="1">
                    <mxGeometry x="330" y="500" width="44" height="88" as="geometry"/>
                </mxCell>
                <mxCell id="50" value="" style="rounded=1;whiteSpace=wrap;html=1;shadow=0;fillColor=#FF8000;direction=south;" vertex="1" parent="1">
                    <mxGeometry x="400" y="500.00000000000017" width="44" height="88" as="geometry"/>
                </mxCell>
                <mxCell id="51" value="" style="rounded=1;whiteSpace=wrap;html=1;shadow=0;fillColor=#FF8000;direction=south;" vertex="1" parent="1">
                    <mxGeometry x="260" y="500" width="44" height="88" as="geometry"/>
                </mxCell>
                <mxCell id="52" value="" style="rounded=1;whiteSpace=wrap;html=1;shadow=0;fillColor=#FF8000;direction=south;" vertex="1" parent="1">
                    <mxGeometry x="470" y="610.0000000000002" width="44" height="88" as="geometry"/>
                </mxCell>
                <mxCell id="53" value="" style="rounded=1;whiteSpace=wrap;html=1;shadow=0;fillColor=#FF8000;direction=south;" vertex="1" parent="1">
                    <mxGeometry x="610" y="610" width="44" height="88" as="geometry"/>
                </mxCell>
                <mxCell id="54" value="" style="rounded=1;whiteSpace=wrap;html=1;shadow=0;fillColor=#FF8000;direction=south;" vertex="1" parent="1">
                    <mxGeometry x="680" y="610.0000000000002" width="44" height="88" as="geometry"/>
                </mxCell>
                <mxCell id="55" value="" style="rounded=1;whiteSpace=wrap;html=1;shadow=0;fillColor=#FF8000;direction=south;" vertex="1" parent="1">
                    <mxGeometry x="540" y="610" width="44" height="88" as="geometry"/>
                </mxCell>
                <mxCell id="56" value="" style="rounded=1;whiteSpace=wrap;html=1;shadow=0;fillColor=#FF8000;direction=south;" vertex="1" parent="1">
                    <mxGeometry x="750" y="610.0000000000002" width="44" height="88" as="geometry"/>
                </mxCell>
                <mxCell id="57" value="" style="rounded=1;whiteSpace=wrap;html=1;shadow=0;fillColor=#FF8000;direction=south;" vertex="1" parent="1">
                    <mxGeometry x="890" y="610" width="44" height="88" as="geometry"/>
                </mxCell>
                <mxCell id="58" value="" style="rounded=1;whiteSpace=wrap;html=1;shadow=0;fillColor=#FF8000;direction=south;" vertex="1" parent="1">
                    <mxGeometry x="960" y="610.0000000000002" width="44" height="88" as="geometry"/>
                </mxCell>
                <mxCell id="59" value="" style="rounded=1;whiteSpace=wrap;html=1;shadow=0;fillColor=#FF8000;direction=south;" vertex="1" parent="1">
                    <mxGeometry x="820" y="610" width="44" height="88" as="geometry"/>
                </mxCell>
                <mxCell id="60" value="" style="rounded=1;whiteSpace=wrap;html=1;shadow=0;fillColor=#FF8000;direction=south;" vertex="1" parent="1">
                    <mxGeometry x="-90" y="610.0000000000002" width="44" height="88" as="geometry"/>
                </mxCell>
                <mxCell id="61" value="" style="rounded=1;whiteSpace=wrap;html=1;shadow=0;fillColor=#FF8000;direction=south;" vertex="1" parent="1">
                    <mxGeometry x="50" y="610" width="44" height="88" as="geometry"/>
                </mxCell>
                <mxCell id="62" value="" style="rounded=1;whiteSpace=wrap;html=1;shadow=0;fillColor=#FF8000;direction=south;" vertex="1" parent="1">
                    <mxGeometry x="120" y="610.0000000000002" width="44" height="88" as="geometry"/>
                </mxCell>
                <mxCell id="63" value="" style="rounded=1;whiteSpace=wrap;html=1;shadow=0;fillColor=#FF8000;direction=south;" vertex="1" parent="1">
                    <mxGeometry x="-20" y="610" width="44" height="88" as="geometry"/>
                </mxCell>
                <mxCell id="64" value="" style="rounded=1;whiteSpace=wrap;html=1;shadow=0;fillColor=#FF8000;direction=south;" vertex="1" parent="1">
                    <mxGeometry x="190" y="610.0000000000002" width="44" height="88" as="geometry"/>
                </mxCell>
                <mxCell id="65" value="" style="rounded=1;whiteSpace=wrap;html=1;shadow=0;fillColor=#FF8000;direction=south;" vertex="1" parent="1">
                    <mxGeometry x="330" y="610" width="44" height="88" as="geometry"/>
                </mxCell>
                <mxCell id="66" value="" style="rounded=1;whiteSpace=wrap;html=1;shadow=0;fillColor=#FF8000;direction=south;" vertex="1" parent="1">
                    <mxGeometry x="400" y="610.0000000000002" width="44" height="88" as="geometry"/>
                </mxCell>
                <mxCell id="67" value="" style="rounded=1;whiteSpace=wrap;html=1;shadow=0;fillColor=#FF8000;direction=south;" vertex="1" parent="1">
                    <mxGeometry x="260" y="610" width="44" height="88" as="geometry"/>
                </mxCell>
                <mxCell id="68" value="" style="rounded=1;whiteSpace=wrap;html=1;shadow=0;fillColor=#82FF5C;direction=south;" vertex="1" parent="1">
                    <mxGeometry x="-510" y="280" width="340" height="88" as="geometry"/>
                </mxCell>
                <mxCell id="69" value="" style="rounded=1;whiteSpace=wrap;html=1;shadow=0;fillColor=#82FF5C;direction=south;" vertex="1" parent="1">
                    <mxGeometry x="-510" y="390" width="340" height="88" as="geometry"/>
                </mxCell>
                <mxCell id="70" value="" style="rounded=1;whiteSpace=wrap;html=1;shadow=0;fillColor=#82FF5C;direction=south;" vertex="1" parent="1">
                    <mxGeometry x="-510" y="500" width="340" height="88" as="geometry"/>
                </mxCell>
                <mxCell id="71" value="" style="rounded=1;whiteSpace=wrap;html=1;shadow=0;fillColor=#82FF5C;direction=south;" vertex="1" parent="1">
                    <mxGeometry x="-510" y="610" width="340" height="88" as="geometry"/>
                </mxCell>
                <mxCell id="72" value="" style="rounded=0;whiteSpace=wrap;html=1;shadow=0;fillColor=#BAB7B6;" vertex="1" parent="1">
                    <mxGeometry x="-510" y="90" width="200" height="100" as="geometry"/>
                </mxCell>
                <mxCell id="74" value="&lt;h1&gt;&lt;span style=&quot;font-size: 36px&quot;&gt;bpm&lt;/span&gt;&lt;/h1&gt;" style="text;html=1;strokeColor=none;fillColor=none;align=center;verticalAlign=middle;whiteSpace=wrap;rounded=0;shadow=0;" vertex="1" parent="1">
                    <mxGeometry x="-490" y="100" width="160" height="80" as="geometry"/>
                </mxCell>
                <mxCell id="75" value="&lt;h1&gt;&lt;span style=&quot;font-size: 36px&quot;&gt;&lt;font color=&quot;#1a1a1a&quot;&gt;kick&lt;/font&gt;&lt;/span&gt;&lt;/h1&gt;" style="text;html=1;strokeColor=none;fillColor=none;align=center;verticalAlign=middle;whiteSpace=wrap;rounded=0;shadow=0;" vertex="1" parent="1">
                    <mxGeometry x="-420" y="282" width="160" height="80" as="geometry"/>
                </mxCell>
                <mxCell id="77" value="&lt;h1&gt;&lt;span style=&quot;font-size: 36px&quot;&gt;&lt;font color=&quot;#1a1a1a&quot;&gt;snare&lt;/font&gt;&lt;/span&gt;&lt;/h1&gt;" style="text;html=1;strokeColor=none;fillColor=none;align=center;verticalAlign=middle;whiteSpace=wrap;rounded=0;shadow=0;" vertex="1" parent="1">
                    <mxGeometry x="-420" y="396" width="160" height="80" as="geometry"/>
                </mxCell>
                <mxCell id="78" value="&lt;h1&gt;&lt;span style=&quot;font-size: 36px&quot;&gt;&lt;font color=&quot;#1a1a1a&quot;&gt;hats&lt;/font&gt;&lt;/span&gt;&lt;/h1&gt;" style="text;html=1;strokeColor=none;fillColor=none;align=center;verticalAlign=middle;whiteSpace=wrap;rounded=0;shadow=0;" vertex="1" parent="1">
                    <mxGeometry x="-420" y="502" width="160" height="80" as="geometry"/>
                </mxCell>
                <mxCell id="79" value="&lt;h1&gt;&lt;span style=&quot;font-size: 36px&quot;&gt;&lt;font color=&quot;#1a1a1a&quot;&gt;tom&lt;/font&gt;&lt;/span&gt;&lt;/h1&gt;" style="text;html=1;strokeColor=none;fillColor=none;align=center;verticalAlign=middle;whiteSpace=wrap;rounded=0;shadow=0;" vertex="1" parent="1">
                    <mxGeometry x="-420" y="618" width="160" height="80" as="geometry"/>
                </mxCell>
            </root>
        </mxGraphModel>
    </diagram>
</mxfile>